<svg xmlns="http://www.w3.org/2000/svg" width="13" height="12" viewBox="0 0 13 12"><g><g><path fill="#fff" d="M10 7.313c0 .345 0 .687-.165.91-.13.26-.303.476-.521.647-.258.205-.532.406-.85.438-.323.031-.917.025-1.393.025H4.432V2.666h2.639c.504 0 .579-.033.929 0 .211.03.611.014.839.138.246.133.43.312.55.536.122.223.183.48.183.773 0 .338-.084.64-.251.887-.168.28-.4.475-.694.6v.036c.424.09.763.275 1.019.553.255.278.354.653.354 1.124zm-2.18-2.85a.792.792 0 0 0-.085-.345.518.518 0 0 0-.265-.257 1.087 1.087 0 0 0-.403-.081 25.919 25.919 0 0 0-.694-.007h-.12V5.24h.217c.295 0 .53-.003.62-.009a.99.99 0 0 0 .366-.098c.138-.065.234-.133.286-.27a.96.96 0 0 0 .078-.4zm.434 2.818c0-.214-.044-.382-.13-.503-.124-.121-.215-.213-.387-.275a1.32 1.32 0 0 0-.43-.068 30.478 30.478 0 0 0-.736-.007h-.318v1.738h.092c.449 0 .76-.003.931-.01.172-.005.348-.047.526-.156.198 0 .27-.137.343-.27a.92.92 0 0 0 .109-.449zM.915 2.361v7.278C.915 10.942 2 12 3.251 12h7.2c1.29 0 2.336-1.058 2.336-2.361V2.36C12.787 1.057 11.74 0 10.45 0h-7.2C2 0 .915 1.057.915 2.36z"/></g></g></svg>